<mxfile host="app.diagrams.net" modified="2023-03-02T04:48:52.916Z" agent="5.0 (Macintosh; Intel Mac OS X 10_15_7) AppleWebKit/537.36 (KHTML, like Gecko) Chrome/110.0.0.0 Safari/537.36" etag="kH4FTcyyIGkEO1aer7YT" version="20.8.23" type="github">
  <diagram id="C5RBs43oDa-KdzZeNtuy" name="Page-1">
    <mxGraphModel dx="2074" dy="1131" grid="1" gridSize="10" guides="1" tooltips="1" connect="1" arrows="1" fold="1" page="1" pageScale="1" pageWidth="827" pageHeight="1169" math="0" shadow="0">
      <root>
        <mxCell id="WIyWlLk6GJQsqaUBKTNV-0" />
        <mxCell id="WIyWlLk6GJQsqaUBKTNV-1" parent="WIyWlLk6GJQsqaUBKTNV-0" />
        <mxCell id="SNMV0da7-mxv0Kt5lc5y-27" value="Comment" style="swimlane;fontStyle=2;align=center;verticalAlign=middle;childLayout=stackLayout;horizontal=1;startSize=50;horizontalStack=0;resizeParent=1;resizeLast=0;collapsible=1;marginBottom=0;rounded=0;shadow=0;strokeWidth=1;fillColor=#dae8fc;strokeColor=#6c8ebf;sketch=1;curveFitting=1;jiggle=2;fontSize=20;" parent="WIyWlLk6GJQsqaUBKTNV-1" vertex="1">
          <mxGeometry x="204" y="510" width="210" height="310" as="geometry">
            <mxRectangle x="230" y="140" width="160" height="26" as="alternateBounds" />
          </mxGeometry>
        </mxCell>
        <mxCell id="SNMV0da7-mxv0Kt5lc5y-28" value="核心字段集合&#xa;resource_type&#xa;resource_id&#xa;comment_body&#xa;......" style="text;align=left;verticalAlign=middle;spacingLeft=4;spacingRight=4;overflow=hidden;rotatable=0;points=[[0,0.5],[1,0.5]];portConstraint=eastwest;sketch=1;curveFitting=1;jiggle=2;fontSize=14;fillColor=#dae8fc;strokeColor=#6c8ebf;" parent="SNMV0da7-mxv0Kt5lc5y-27" vertex="1">
          <mxGeometry y="50" width="210" height="130" as="geometry" />
        </mxCell>
        <mxCell id="SNMV0da7-mxv0Kt5lc5y-29" value="商城拓展字段集合&#xa;ext_index&#xa;sub_resource_id&#xa;first_comment_id&#xa;mall_type&#xa;comment_way&#xa;......" style="text;align=left;verticalAlign=middle;spacingLeft=4;spacingRight=4;overflow=hidden;rotatable=0;points=[[0,0.5],[1,0.5]];portConstraint=eastwest;fillColor=#dae8fc;strokeColor=#6c8ebf;sketch=1;curveFitting=1;jiggle=2;fontSize=14;" parent="SNMV0da7-mxv0Kt5lc5y-27" vertex="1">
          <mxGeometry y="180" width="210" height="130" as="geometry" />
        </mxCell>
        <mxCell id="IEYArmCjWMqC8iR9iTE1-0" value="CsdComment" style="swimlane;fontStyle=2;align=center;verticalAlign=middle;childLayout=stackLayout;horizontal=1;startSize=50;horizontalStack=0;resizeParent=1;resizeLast=0;collapsible=1;marginBottom=0;rounded=0;shadow=0;strokeWidth=1;fillColor=#dae8fc;strokeColor=#6c8ebf;sketch=1;curveFitting=1;jiggle=2;fontSize=20;" parent="WIyWlLk6GJQsqaUBKTNV-1" vertex="1">
          <mxGeometry x="890" y="330" width="210" height="210" as="geometry">
            <mxRectangle x="230" y="140" width="160" height="26" as="alternateBounds" />
          </mxGeometry>
        </mxCell>
        <mxCell id="IEYArmCjWMqC8iR9iTE1-1" value="核心字段集合&#xa;resource_type&#xa;resource_id&#xa;comment_body&#xa;......" style="text;align=left;verticalAlign=middle;spacingLeft=4;spacingRight=4;overflow=hidden;rotatable=0;points=[[0,0.5],[1,0.5]];portConstraint=eastwest;sketch=1;curveFitting=1;jiggle=2;fontSize=14;fillColor=#dae8fc;strokeColor=#6c8ebf;" parent="IEYArmCjWMqC8iR9iTE1-0" vertex="1">
          <mxGeometry y="50" width="210" height="160" as="geometry" />
        </mxCell>
        <mxCell id="IEYArmCjWMqC8iR9iTE1-3" value="ShopMallCommentExt" style="swimlane;fontStyle=2;align=center;verticalAlign=middle;childLayout=stackLayout;horizontal=1;startSize=50;horizontalStack=0;resizeParent=1;resizeLast=0;collapsible=1;marginBottom=0;rounded=0;shadow=0;strokeWidth=1;fillColor=#dae8fc;strokeColor=#6c8ebf;sketch=1;curveFitting=1;jiggle=2;fontSize=20;" parent="WIyWlLk6GJQsqaUBKTNV-1" vertex="1">
          <mxGeometry x="890" y="640" width="210" height="220" as="geometry">
            <mxRectangle x="230" y="140" width="160" height="26" as="alternateBounds" />
          </mxGeometry>
        </mxCell>
        <mxCell id="IEYArmCjWMqC8iR9iTE1-5" value="商城拓展字段集合&#xa;ext_index&#xa;sub_resource_id&#xa;first_comment_id&#xa;mall_type&#xa;comment_way&#xa;......" style="text;align=left;verticalAlign=middle;spacingLeft=4;spacingRight=4;overflow=hidden;rotatable=0;points=[[0,0.5],[1,0.5]];portConstraint=eastwest;fillColor=#dae8fc;strokeColor=#6c8ebf;sketch=1;curveFitting=1;jiggle=2;fontSize=14;" parent="IEYArmCjWMqC8iR9iTE1-3" vertex="1">
          <mxGeometry y="50" width="210" height="170" as="geometry" />
        </mxCell>
        <mxCell id="IEYArmCjWMqC8iR9iTE1-6" value="" style="line;strokeWidth=2;direction=south;html=1;hachureGap=4;fontFamily=Architects Daughter;fontSource=https%3A%2F%2Ffonts.googleapis.com%2Fcss%3Ffamily%3DArchitects%2BDaughter;fontSize=20;dashed=1;" parent="WIyWlLk6GJQsqaUBKTNV-1" vertex="1">
          <mxGeometry x="640" y="210" width="10" height="890" as="geometry" />
        </mxCell>
        <mxCell id="IEYArmCjWMqC8iR9iTE1-7" value="&lt;div data-docx-has-block-data=&quot;false&quot; data-page-id=&quot;MmY3dnBYno8vMrxCCS0ccUi1nzh&quot; style=&quot;font-size: 45px;&quot;&gt;&lt;div class=&quot;old-record-id-MmY3dnBYno8vMrxCCS0ccUi1nzh&quot; style=&quot;font-size: 45px;&quot;&gt;&lt;font color=&quot;#9933ff&quot;&gt;评论COE改造前&lt;/font&gt;&lt;/div&gt;&lt;/div&gt;" style="text;html=1;strokeColor=none;fillColor=none;align=center;verticalAlign=middle;whiteSpace=wrap;rounded=0;sketch=1;fontSize=45;fontColor=#FF66FF;" parent="WIyWlLk6GJQsqaUBKTNV-1" vertex="1">
          <mxGeometry x="140" y="210" width="356" height="50" as="geometry" />
        </mxCell>
        <mxCell id="IEYArmCjWMqC8iR9iTE1-8" value="&lt;div data-docx-has-block-data=&quot;false&quot; data-page-id=&quot;MmY3dnBYno8vMrxCCS0ccUi1nzh&quot; style=&quot;font-size: 45px;&quot;&gt;&lt;div class=&quot;old-record-id-MmY3dnBYno8vMrxCCS0ccUi1nzh&quot; style=&quot;font-size: 45px;&quot;&gt;&lt;font color=&quot;#9933ff&quot;&gt;评论COE改造后&lt;/font&gt;&lt;/div&gt;&lt;/div&gt;" style="text;html=1;strokeColor=none;fillColor=none;align=center;verticalAlign=middle;whiteSpace=wrap;rounded=0;sketch=1;fontSize=45;fontColor=#FF66FF;" parent="WIyWlLk6GJQsqaUBKTNV-1" vertex="1">
          <mxGeometry x="800" y="195" width="350" height="80" as="geometry" />
        </mxCell>
        <mxCell id="IEYArmCjWMqC8iR9iTE1-9" value="" style="endArrow=classic;html=1;rounded=0;sketch=1;hachureGap=4;jiggle=2;curveFitting=1;fontFamily=Architects Daughter;fontSource=https%3A%2F%2Ffonts.googleapis.com%2Fcss%3Ffamily%3DArchitects%2BDaughter;fontSize=16;fillColor=#dae8fc;strokeColor=#6c8ebf;strokeWidth=2;" parent="WIyWlLk6GJQsqaUBKTNV-1" edge="1">
          <mxGeometry width="50" height="50" relative="1" as="geometry">
            <mxPoint x="430" y="730" as="sourcePoint" />
            <mxPoint x="860" y="420" as="targetPoint" />
          </mxGeometry>
        </mxCell>
        <mxCell id="IEYArmCjWMqC8iR9iTE1-10" value="" style="endArrow=classic;html=1;rounded=0;sketch=1;hachureGap=4;jiggle=2;curveFitting=1;fontFamily=Architects Daughter;fontSource=https%3A%2F%2Ffonts.googleapis.com%2Fcss%3Ffamily%3DArchitects%2BDaughter;fontSize=16;fillColor=#dae8fc;strokeColor=#6c8ebf;strokeWidth=2;shadow=0;" parent="WIyWlLk6GJQsqaUBKTNV-1" edge="1">
          <mxGeometry width="50" height="50" relative="1" as="geometry">
            <mxPoint x="430" y="760" as="sourcePoint" />
            <mxPoint x="860" y="1120" as="targetPoint" />
          </mxGeometry>
        </mxCell>
        <mxCell id="5edWiQ2BqvPyB7J-ncuG-0" value="Vlog字段集合&#xa;vlog_id&#xa;origin_upload_url&#xa;detail_info&#xa;vlog_status&#xa;......" style="text;align=left;verticalAlign=middle;spacingLeft=4;spacingRight=4;overflow=hidden;rotatable=0;points=[[0,0.5],[1,0.5]];portConstraint=eastwest;fillColor=#dae8fc;strokeColor=#6c8ebf;sketch=1;curveFitting=1;jiggle=2;fontSize=14;" vertex="1" parent="WIyWlLk6GJQsqaUBKTNV-1">
          <mxGeometry x="204" y="820" width="210" height="130" as="geometry" />
        </mxCell>
        <mxCell id="5edWiQ2BqvPyB7J-ncuG-1" value="VlogRelated" style="swimlane;fontStyle=2;align=center;verticalAlign=middle;childLayout=stackLayout;horizontal=1;startSize=50;horizontalStack=0;resizeParent=1;resizeLast=0;collapsible=1;marginBottom=0;rounded=0;shadow=0;strokeWidth=1;fillColor=#dae8fc;strokeColor=#6c8ebf;sketch=1;curveFitting=1;jiggle=2;fontSize=20;" vertex="1" parent="WIyWlLk6GJQsqaUBKTNV-1">
          <mxGeometry x="890" y="990" width="210" height="200" as="geometry">
            <mxRectangle x="230" y="140" width="160" height="26" as="alternateBounds" />
          </mxGeometry>
        </mxCell>
        <mxCell id="5edWiQ2BqvPyB7J-ncuG-2" value="Vlog字段集合&#xa;vlog_id&#xa;origin_upload_url&#xa;detail_info&#xa;vlog_status&#xa;......" style="text;align=left;verticalAlign=middle;spacingLeft=4;spacingRight=4;overflow=hidden;rotatable=0;points=[[0,0.5],[1,0.5]];portConstraint=eastwest;fillColor=#dae8fc;strokeColor=#6c8ebf;sketch=1;curveFitting=1;jiggle=2;fontSize=14;" vertex="1" parent="5edWiQ2BqvPyB7J-ncuG-1">
          <mxGeometry y="50" width="210" height="150" as="geometry" />
        </mxCell>
        <mxCell id="5edWiQ2BqvPyB7J-ncuG-4" value="" style="endArrow=classic;html=1;rounded=0;sketch=1;hachureGap=4;jiggle=2;curveFitting=1;fontFamily=Architects Daughter;fontSource=https%3A%2F%2Ffonts.googleapis.com%2Fcss%3Ffamily%3DArchitects%2BDaughter;fontSize=16;fillColor=#dae8fc;strokeColor=#6c8ebf;strokeWidth=2;shadow=0;" edge="1" parent="WIyWlLk6GJQsqaUBKTNV-1">
          <mxGeometry width="50" height="50" relative="1" as="geometry">
            <mxPoint x="430" y="750" as="sourcePoint" />
            <mxPoint x="870" y="750" as="targetPoint" />
          </mxGeometry>
        </mxCell>
      </root>
    </mxGraphModel>
  </diagram>
</mxfile>
